<svg width="24" height="24" viewBox="0 0 24 24" fill="none" xmlns="http://www.w3.org/2000/svg">
<rect x="4" y="4" width="16" height="16" rx="8" fill="#D0505D"/>
<path fill-rule="evenodd" clip-rule="evenodd" d="M11.486 8.30781C11.7285 8.68125 11.9227 9.22045 11.9696 9.60359L12.0213 10.0259L11.7299 9.89372C11.365 9.72814 10.9498 9.48945 10.6742 9.21513C10.5406 9.08208 10.4102 8.91232 10.357 8.70367C10.3283 8.59141 10.3221 8.46763 10.3503 8.34266C10.3778 8.22088 10.4332 8.11864 10.5029 8.0336C10.6706 7.82902 10.8645 7.79309 11.0461 7.87423C11.2146 7.94953 11.3644 8.12037 11.486 8.30781ZM10.9334 8.36777C10.8663 8.33778 10.8095 8.34698 10.7464 8.424C10.7131 8.4646 10.7053 8.49072 10.7035 8.49864C10.7024 8.50338 10.701 8.51065 10.7058 8.52942C10.7194 8.58284 10.7705 8.67507 10.889 8.79301C11.0398 8.94319 11.253 9.08973 11.4824 9.21828C11.4126 9.02365 11.3187 8.82078 11.2118 8.6561C11.1106 8.50014 11.0136 8.4036 10.9334 8.36777Z" fill="#E9E6E0"/>
<path fill-rule="evenodd" clip-rule="evenodd" d="M12.514 8.30781C12.2715 8.68125 12.0773 9.22045 12.0304 9.60359L11.9787 10.0259L12.2701 9.89372C12.635 9.72814 13.0502 9.48945 13.3258 9.21513C13.4594 9.08208 13.5898 8.91232 13.643 8.70367C13.6717 8.59141 13.6779 8.46763 13.6497 8.34266C13.6222 8.22088 13.5668 8.11864 13.4971 8.0336C13.3294 7.82902 13.1355 7.79309 12.9539 7.87423C12.7854 7.94953 12.6356 8.12037 12.514 8.30781ZM13.0666 8.36777C13.1337 8.33778 13.1905 8.34698 13.2536 8.424C13.2869 8.4646 13.2947 8.49072 13.2965 8.49864C13.2976 8.50338 13.299 8.51065 13.2942 8.52942C13.2806 8.58284 13.2295 8.67507 13.111 8.79301C12.9602 8.94319 12.747 9.08973 12.5176 9.21828C12.5874 9.02365 12.6813 8.82078 12.7882 8.6561C12.8894 8.50014 12.9864 8.4036 13.0666 8.36777Z" fill="#E9E6E0"/>
<rect x="8.47917" y="9.93815" width="7.04167" height="5.375" stroke="#E9E6E0" stroke-width="0.458333"/>
<path d="M8.66797 12.4297L15.3346 12.4297" stroke="#E9E6E0" stroke-width="0.458333"/>
<path d="M12 10.125V15.125" stroke="#E9E6E0" stroke-width="0.458333"/>
</svg>
