<svg width="25" height="24" viewBox="0 0 25 24" fill="none" xmlns="http://www.w3.org/2000/svg">
<path fill-rule="evenodd" clip-rule="evenodd" d="M11.2696 3.13717C11.8514 4.03344 12.3176 5.32751 12.4301 6.24705L12.5542 7.2607L11.8549 6.94337C10.9791 6.54597 9.98259 5.97312 9.32126 5.31475C9.00049 4.99542 8.68772 4.588 8.55987 4.08724C8.49109 3.81781 8.47611 3.52074 8.5438 3.22082C8.60976 2.92854 8.74292 2.68317 8.91015 2.47908C9.31247 1.98808 9.77786 1.90185 10.2137 2.0966C10.6182 2.27732 10.9776 2.68733 11.2696 3.13717ZM9.94328 3.28108C9.78222 3.20912 9.64599 3.23119 9.49452 3.41604C9.41468 3.51348 9.39574 3.57617 9.39144 3.59518C9.38888 3.60654 9.38548 3.624 9.39698 3.66905C9.42971 3.79725 9.55232 4.01861 9.83665 4.30167C10.1987 4.6621 10.7103 5.01379 11.2609 5.3223C11.0934 4.85521 10.8681 4.3683 10.6116 3.97308C10.3686 3.59877 10.1357 3.36707 9.94328 3.28108Z" fill="#5E5955"/>
<path fill-rule="evenodd" clip-rule="evenodd" d="M13.7304 3.13717C13.1486 4.03344 12.6824 5.32751 12.5699 6.24705L12.4458 7.2607L13.1451 6.94337C14.0209 6.54597 15.0174 5.97312 15.6787 5.31475C15.9995 4.99542 16.3123 4.588 16.4401 4.08724C16.5089 3.81781 16.5239 3.52074 16.4562 3.22082C16.3902 2.92854 16.2571 2.68317 16.0898 2.47908C15.6875 1.98808 15.2221 1.90185 14.7863 2.0966C14.3818 2.27732 14.0224 2.68733 13.7304 3.13717ZM15.0567 3.28108C15.2178 3.20912 15.354 3.23119 15.5055 3.41604C15.5853 3.51348 15.6043 3.57617 15.6086 3.59518C15.6111 3.60654 15.6145 3.624 15.603 3.66905C15.5703 3.79725 15.4477 4.01861 15.1633 4.30167C14.8013 4.6621 14.2897 5.01379 13.7391 5.3223C13.9066 4.85521 14.1319 4.3683 14.3884 3.97308C14.6314 3.59877 14.8643 3.36707 15.0567 3.28108Z" fill="#5E5955"/>
<rect x="4.05" y="7.05" width="16.9" height="12.9" stroke="#5E5955" stroke-width="1.1"/>
<path d="M4.5 13.0298L20.5 13.0298" stroke="#5E5955" stroke-width="1.1"/>
<path d="M12.5 7.5V19.5" stroke="#5E5955" stroke-width="1.1"/>
</svg>
