<svg width="24" height="24" viewBox="0 0 24 24" fill="none" xmlns="http://www.w3.org/2000/svg">
<rect x="3.55" y="5.55" width="16.9" height="12.9" stroke="#5E5955" stroke-width="1.1"/>
<path d="M13.4678 10.6846C13.292 10.0869 12.8086 9.71777 12.1143 9.71777C11.1299 9.71777 10.4619 10.4736 10.4619 11.8096C10.4619 13.1543 11.1123 13.9189 12.123 13.9189C13.0327 13.9189 13.5732 13.4048 13.5908 12.6006H12.2109V11.6074H14.8652V12.3984C14.8652 14.0684 13.7227 15.0879 12.1143 15.0879C10.3301 15.0879 9.11719 13.8398 9.11719 11.8271C9.11719 9.76172 10.4092 8.54883 12.0879 8.54883C13.5205 8.54883 14.6279 9.42773 14.8037 10.6846H13.4678Z" fill="#5E5955"/>
</svg>
