<svg width="24" height="24" viewBox="0 0 24 24" fill="none" xmlns="http://www.w3.org/2000/svg">
<g clip-path="url(#clip0_2212_63111)">
<path d="M18.3795 11.0377C18.4202 11.3562 18.4542 11.6747 18.4542 12H18.4609C18.4609 12.3323 18.4338 12.6508 18.3863 12.9623L20.5379 14.2293L18.1623 18.4247L16.0039 17.1577C15.5152 17.5523 14.9722 17.8777 14.3818 18.1131V20.6539H9.63062V18.1131C9.04012 17.8708 8.49035 17.5454 8.00166 17.1508L5.8365 18.4247L3.46094 14.2293L5.63288 12.9485C5.58537 12.637 5.55822 12.3254 5.55822 12C5.55822 11.6747 5.58537 11.3562 5.63288 11.0447L3.46772 9.77081L5.8365 5.5685L8.00166 6.84235C8.49035 6.44773 9.03334 6.12235 9.62383 5.88696V3.34619H14.375V5.88696C14.9655 6.12927 15.5084 6.44773 15.9971 6.84235L18.1555 5.57542L20.5311 9.77081L18.3795 11.0377Z" stroke="#5E5955" stroke-width="1.1" stroke-miterlimit="10"/>
<circle cx="12" cy="12" r="3.45" stroke="#5E5955" stroke-width="1.1"/>
</g>
<defs>
<clipPath id="clip0_2212_63111">
<rect width="18" height="18" fill="white" transform="translate(3 3)"/>
</clipPath>
</defs>
</svg>
