<svg width="24" height="24" viewBox="0 0 24 24" fill="none" xmlns="http://www.w3.org/2000/svg">
<mask id="path-1-inside-1_2212_50995" fill="white">
<path fill-rule="evenodd" clip-rule="evenodd" d="M15.5764 8.79349C15.8474 8.25406 16 7.64485 16 7C16 6.86654 15.9935 6.73461 15.9807 6.60451L16 6.5H15.9691C15.723 4.52684 14.0398 3 12 3C9.96019 3 8.277 4.52684 8.03095 6.5H8L8.0193 6.60451C8.00654 6.73461 8 6.86654 8 7C8 7.64485 8.15259 8.25406 8.42364 8.79349L9.5 14.6207L5 16V19L19 19V16L14.5 14.6207L15.5764 8.79349Z"/>
</mask>
<path d="M15.5764 8.79349L14.6828 8.34451L14.6189 8.47179L14.593 8.61185L15.5764 8.79349ZM15.9807 6.60451L14.9973 6.42287L14.9717 6.56169L14.9855 6.70219L15.9807 6.60451ZM16 6.5L16.9834 6.68164L17.2016 5.5H16V6.5ZM15.9691 6.5L14.9767 6.62374L15.086 7.5H15.9691V6.5ZM8.03095 6.5V7.5H8.91399L9.02326 6.62374L8.03095 6.5ZM8 6.5V5.5H6.79837L7.01663 6.68164L8 6.5ZM8.0193 6.60451L9.01452 6.70219L9.02831 6.56169L9.00267 6.42287L8.0193 6.60451ZM8.42364 8.79349L9.407 8.61185L9.38113 8.47178L9.31718 8.34451L8.42364 8.79349ZM9.5 14.6207L9.79306 15.5768L10.6453 15.3156L10.4834 14.4391L9.5 14.6207ZM5 16L4.70694 15.0439L4 15.2606V16H5ZM5 19H4V20L5 20L5 19ZM19 19V20H20V19H19ZM19 16H20V15.2606L19.2931 15.0439L19 16ZM14.5 14.6207L13.5166 14.4391L13.3547 15.3156L14.2069 15.5768L14.5 14.6207ZM15 7C15 7.48544 14.8855 7.94123 14.6828 8.34451L16.4699 9.24247C16.8094 8.56689 17 7.80426 17 7H15ZM14.9855 6.70219C14.9951 6.79988 15 6.89922 15 7H17C17 6.83387 16.9919 6.66934 16.9759 6.50684L14.9855 6.70219ZM16.9641 6.78615L16.9834 6.68164L15.0166 6.31835L14.9973 6.42287L16.9641 6.78615ZM16 5.5H15.9691V7.5H16V5.5ZM12 4C13.5291 4 14.7923 5.1449 14.9767 6.62374L16.9614 6.37626C16.6537 3.90879 14.5505 2 12 2V4ZM9.02326 6.62374C9.20767 5.1449 10.4709 4 12 4V2C9.44948 2 7.34632 3.90879 7.03863 6.37626L9.02326 6.62374ZM8.03095 5.5H8V7.5H8.03095V5.5ZM7.01663 6.68164L7.03594 6.78615L9.00267 6.42287L8.98336 6.31836L7.01663 6.68164ZM9 7C9 6.89921 9.00494 6.79988 9.01452 6.70219L7.02409 6.50683C7.00814 6.66935 7 6.83387 7 7H9ZM9.31718 8.34451C9.11455 7.94123 9 7.48543 9 7H7C7 7.80427 7.19064 8.56689 7.53009 9.24247L9.31718 8.34451ZM7.44027 8.97513L8.51663 14.8023L10.4834 14.4391L9.407 8.61185L7.44027 8.97513ZM9.20694 13.6646L4.70694 15.0439L5.29306 16.9561L9.79306 15.5768L9.20694 13.6646ZM4 16V19H6V16H4ZM5 20H19V18L5 18L5 20ZM20 19V16H18V19H20ZM19.2931 15.0439L14.7931 13.6646L14.2069 15.5768L18.7069 16.9561L19.2931 15.0439ZM15.4834 14.8023L16.5597 8.97513L14.593 8.61185L13.5166 14.4391L15.4834 14.8023Z" fill="#5E5955" mask="url(#path-1-inside-1_2212_50995)"/>
<path d="M5 20L19 20" stroke="#5E5955"/>
</svg>
